# xmcd CD database file
#
# Track frame offsets:
#	150
#	21245
#	41656
#	55986
#	71276
#	83429
#	98653
#	110036
#	126463
#	141924
#	159010
#	176681
#	188844
#
# Disc length: 2825 seconds
#
# Revision: 0
# Processed by: cddbd v1.5.2PL0 Copyright (c) Steve Scherf et al.
# Submitted via: CDex 1.51
#
DISCID=aa0b070d
DTITLE=The Lamont Cranston Band - In The 80's
DYEAR=2009
DGENRE=Blues
TTITLE0=Lovin' Machine
TTITLE1=Voice Calling
TTITLE2=Tell Me
TTITLE3=Why Don't You Make Up Your Mind
TTITLE4=Come On
TTITLE5=Workin' For Rosie
TTITLE6=Rock This Way
TTITLE7=Spell On Me
TTITLE8=Streets Around Here
TTITLE9=Upper Mississippi Shakedown
TTITLE10=Takin' A Chance
TTITLE11=Seven
TTITLE12=Two Trains Runnin'
EXTD=YEAR: 2009
EXTT0=
EXTT1=
EXTT2=
EXTT3=
EXTT4=
EXTT5=
EXTT6=
EXTT7=
EXTT8=
EXTT9=
EXTT10=
EXTT11=
EXTT12=
PLAYORDER=
